<svg width="446" height="273" viewBox="0 0 446 273" fill="none" xmlns="http://www.w3.org/2000/svg">
<path d="M50.2617 227.113C50.2617 237.473 53.2578 245.191 59.25 250.27C65.3438 255.449 75.6523 258.191 90.1758 258.496V272.359C70.3711 272.359 56.2539 268.551 47.8242 260.934C39.4961 253.316 35.332 241.586 35.332 225.742V174.402C35.332 153.582 23.6523 142.969 0.292969 142.562V130.375C12.6836 130.172 21.6211 127.582 27.1055 122.605C32.5898 117.629 35.332 110.113 35.332 100.059V46.7383C35.332 16.3711 53.6133 0.882812 90.1758 0.273438V13.9844C76.1602 14.4922 66.0039 17.4375 59.707 22.8203C53.4102 28.2031 50.2617 36.1758 50.2617 46.7383V93.2031C50.2617 106.406 48.0273 116.258 43.5586 122.758C39.0898 129.258 31.8789 133.574 21.9258 135.707V136.926C31.7773 138.957 38.9375 143.223 43.4062 149.723C47.9766 156.121 50.2617 165.566 50.2617 178.059V227.113Z" fill="#2D343A"/>
<path d="M395.32 178.059C395.32 165.566 397.555 156.121 402.023 149.723C406.594 143.223 413.805 138.957 423.656 136.926V135.707C413.805 133.676 406.594 129.41 402.023 122.91C397.555 116.41 395.32 106.508 395.32 93.2031V46.7383C395.32 36.2773 392.172 28.3555 385.875 22.9727C379.68 17.4883 369.523 14.4922 355.406 13.9844V0.273438C373.078 0.273438 386.637 4.23438 396.082 12.1562C405.527 19.9766 410.25 31.5039 410.25 46.7383V100.059C410.25 110.215 412.992 117.781 418.477 122.758C424.062 127.633 433 130.172 445.289 130.375V142.562C421.93 142.969 410.25 153.582 410.25 174.402V225.742C410.25 241.484 406.035 253.164 397.605 260.781C389.277 268.5 375.211 272.359 355.406 272.359V258.496C369.727 258.293 379.934 255.602 386.027 250.422C392.223 245.344 395.32 237.574 395.32 227.113V178.059Z" fill="#2D343A"/>
<path d="M154.263 225.947C154.263 225.947 134.053 225.947 134.053 205.737V64.2631C134.053 64.2631 134.053 44.0526 154.263 44.0526H285.632C290.684 44.0526 295.737 49.1053 295.737 49.1053L310.895 64.2631C310.895 64.2631 315.947 69.3158 315.947 74.3684V205.737C315.947 205.737 315.947 225.947 295.737 225.947H154.263Z" fill="#2D343A"/>
<path d="M159.316 140.053V135C159.316 135 159.316 124.895 169.421 124.895H275.526C285.631 124.895 285.631 135 285.631 135V140.053H159.316Z" fill="#55ACEE"/>
<path d="M159.316 205.845V140.055H285.631V205.739C285.631 205.739 285.631 215.845 275.526 215.845H169.421C159.316 215.845 159.316 205.845 159.316 205.845Z" fill="#E1E8ED"/>
<path d="M245.211 107.237C245.211 108.618 246.33 109.737 247.711 109.737H267.974C269.354 109.737 270.474 108.618 270.474 107.237V61.7105C270.474 60.3298 269.354 59.2105 267.974 59.2105H247.711C246.33 59.2105 245.211 60.3298 245.211 61.7105V107.237ZM184.579 59.2105C184.579 59.2105 184.579 59.2105 184.579 59.2105C184.579 59.2105 184.579 54.1579 189.632 54.1579H280.579C285.535 54.1579 285.64 58.5847 285.633 59.1511C285.633 59.1911 285.632 59.2305 285.632 59.2704V109.737C285.632 109.737 285.632 109.737 285.632 109.737C285.632 109.737 285.632 114.789 280.579 114.789H189.632C189.632 114.789 189.632 114.789 189.632 114.789C189.632 114.789 184.579 114.789 184.579 109.737V59.2105Z" fill="#E1E8ED"/>
</svg>
